<svg viewBox="0 0 600 400" xmlns="http://www.w3.org/2000/svg">
<g transform="translate(54, 364)">
<g>
<path d="M0,0 L0,0 L2.55,-0.2680834 L5.1,-0.540205 L7.65,-0.81641275 L10.2,-1.0967553 L12.75,-1.3812821 L15.3,-1.6700437 L17.85,-1.9630914 L20.4,-2.2604775 L22.95,-2.5622551 L25.5,-2.8684788 L28.05,-3.179203 L30.6,-3.4944842 L33.15,-3.8143797 L35.7,-4.138947 L38.25,-4.468246 L40.8,-4.802336 L43.35,-5.141279 L45.9,-5.4851375 L48.45,-5.833974 L51,-6.187854 L53.55,-6.546842 L56.1,-6.9110065 L58.65,-7.2804146 L61.2,-7.6551356 L63.75,-8.03524 L66.3,-8.4208 L68.85,-8.811889 L71.4,-9.208579 L73.95,-9.610949 L76.5,-10.019073 L79.05,-10.433031 L81.6,-10.852902 L84.15,-11.278768 L86.7,-11.710711 L89.25,-12.148814 L91.8,-12.5931635 L94.35,-13.043848 L96.9,-13.500954 L99.45,-13.964572 L102,-14.434794 L104.55,-14.911715 L107.1,-15.395427 L109.65,-15.886029 L112.2,-16.38362 L114.75,-16.888298 L117.3,-17.400166 L119.85,-17.919329 L122.4,-18.44589 L124.95,-18.979961 L127.5,-19.521646 L130.05,-20.071062 L132.6,-20.62832 L135.15,-21.193535 L137.7,-21.766825 L140.25,-22.34831 L142.8,-22.938114 L145.35,-23.536356 L147.9,-24.143167 L150.45,-24.758675 L153,-25.383009 L155.55,-26.016304 L158.1,-26.658695 L160.65,-27.31032 L163.2,-27.971321 L165.75,-28.64184 L168.3,-29.322025 L170.85,-30.012022 L173.4,-30.711983 L175.95,-31.422064 L178.5,-32.142418 L181.05,-32.87321 L183.6,-33.6146 L186.15,-34.366753 L188.7,-35.129837 L191.25,-35.90403 L193.8,-36.6895 L196.35,-37.486423 L198.9,-38.29499 L201.45,-39.115383 L204,-39.94779 L206.55,-40.792397 L209.1,-41.649403 L211.65,-42.519012 L214.2,-43.401424 L216.75,-44.296844 L219.3,-45.205482 L221.85,-46.127556 L224.4,-47.06328 L226.95,-48.01288 L229.5,-48.97658 L232.05,-49.954617 L234.6,-50.94722 L237.15,-51.95463 L239.7,-52.977097 L242.25,-54.014862 L244.8,-55.068184 L247.35,-56.137318 L249.9,-57.22253 L252.45,-58.324093 L255,-59.442272 L257.55,-60.57735 L260.1,-61.729614 L262.65,-62.89935 L265.2,-64.08685 L267.75,-65.29243 L270.3,-66.51638 L272.85,-67.75902 L275.4,-69.02067 L277.95,-70.30165 L280.5,-71.6023 L283.05,-72.92295 L285.6,-74.26395 L288.15,-75.62564 L290.7,-77.0084 L293.25,-78.41257 L295.8,-79.83854 L298.35,-81.286674 L300.9,-82.75738 L303.45,-84.25103 L306,-85.768036 L308.55,-87.308815 L311.1,-88.87378 L313.65,-90.46335 L316.2,-92.07797 L318.75,-93.71809 L321.3,-95.38414 L323.85,-97.07661 L326.4,-98.795944 L328.95,-100.54264 L331.5,-102.31718 L334.05,-104.12007 L336.6,-105.95181 L339.15,-107.812935 L341.7,-109.703964 L344.25,-111.62545 L346.8,-113.57793 L349.35,-115.56197 L351.9,-117.578156 L354.45,-119.627075 L357,-121.70931 L359.55,-123.825485 L362.1,-125.97622 L364.65,-128.16216 L367.2,-130.38393 L369.75,-132.64221 L372.3,-134.93768 L374.85,-137.27103 L377.4,-139.64294 L379.95,-142.05417 L382.5,-144.50542 L385.05,-146.99745 L387.6,-149.53104 L390.15,-152.10695 L392.7,-154.72598 L395.25,-157.38895 L397.8,-160.09668 L400.35,-162.85004 L402.9,-165.64987 L405.45,-168.49707 L408,-171.39255 L410.55,-174.3372 L413.1,-177.332 L415.65,-180.37788 L418.2,-183.47585 L420.75,-186.62689 L423.3,-189.83203 L425.85,-193.09232 L428.4,-196.40883 L430.95,-199.78264 L433.5,-203.21486 L436.05,-206.70665 L438.6,-210.25916 L441.15,-213.87357 L443.7,-217.55112 L446.25,-221.29301 L448.8,-225.10054 L451.35,-228.97498 L453.9,-232.91766 L456.45,-236.92995 L459,-241.01321 L461.55,-245.16884 L464.1,-249.3983 L466.65,-253.70306 L469.2,-258.08463 L471.75,-262.54453 L474.3,-267.08432 L476.85,-271.70566 L479.4,-276.41013 L481.95,-281.19946 L484.5,-286.07532 L487.05,-291.0395 L489.6,-296.09375 L492.15,-301.23996 L494.7,-306.47995 L497.25,-311.81564 L499.8,-317.24905 L502.35,-322.7821 L504.9,-328.41687 L507.45,-334.15546 L510,-340" fill="none" stroke="#113355" stroke-linejoin="round" stroke-width="2"/>
</g>
<g>
<rect fill="#DD3355" height="10" width="10" x="-5" y="-5.4471932649990435"/>
<rect fill="#DD3355" height="10" width="10" x="7.75" y="-6.390857510574366"/>
<rect fill="#DD3355" height="10" width="10" x="20.5" y="-8.379870378059639"/>
<rect fill="#DD3355" height="10" width="10" x="33.25" y="-9.519263470267841"/>
<rect fill="#DD3355" height="10" width="10" x="46" y="-11.77200883849562"/>
<rect fill="#DD3355" height="10" width="10" x="58.75" y="-13.13287338967096"/>
<rect fill="#DD3355" height="10" width="10" x="71.5" y="-15.686172424123066"/>
<rect fill="#DD3355" height="10" width="10" x="84.25" y="-17.299416136123767"/>
<rect fill="#DD3355" height="10" width="10" x="97" y="-20.196942634653524"/>
<rect fill="#DD3355" height="10" width="10" x="109.75" y="-22.099632623261865"/>
<rect fill="#DD3355" height="10" width="10" x="122.5" y="-25.393249840132572"/>
<rect fill="#DD3355" height="10" width="10" x="135.25" y="-27.62983647633656"/>
<rect fill="#DD3355" height="10" width="10" x="148" y="-31.381235592396912"/>
<rect fill="#DD3355" height="10" width="10" x="160.75" y="-34.00506062575016"/>
<rect fill="#DD3355" height="10" width="10" x="173.5" y="-38.28777304734594"/>
<rect fill="#DD3355" height="10" width="10" x="186.25" y="-41.36293122621416"/>
<rect fill="#DD3355" height="10" width="10" x="199" y="-46.26480579538774"/>
<rect fill="#DD3355" height="10" width="10" x="211.75" y="-49.868447651412815"/>
<rect fill="#DD3355" height="10" width="10" x="224.5" y="-55.4947079894584"/>
<rect fill="#DD3355" height="10" width="10" x="237.25" y="-59.71989509588815"/>
<rect fill="#DD3355" height="10" width="10" x="250" y="-66.19692323147571"/>
<rect fill="#DD3355" height="10" width="10" x="262.75" y="-71.15617763343066"/>
<rect fill="#DD3355" height="10" width="10" x="275.5" y="-78.63620981814022"/>
<rect fill="#DD3355" height="10" width="10" x="288.25" y="-84.46593851435097"/>
<rect fill="#DD3355" height="10" width="10" x="301" y="-93.1329103766225"/>
<rect fill="#DD3355" height="10" width="10" x="313.75" y="-99.99893640699545"/>
<rect fill="#DD3355" height="10" width="10" x="326.5" y="-110.07578086820862"/>
<rect fill="#DD3355" height="10" width="10" x="339.25" y="-118.18027830271814"/>
<rect fill="#DD3355" height="10" width="10" x="352" y="-129.93806564503677"/>
<rect fill="#DD3355" height="10" width="10" x="364.75" y="-139.52828131866715"/>
<rect fill="#DD3355" height="10" width="10" x="377.5" y="-153.2977026501276"/>
<rect fill="#DD3355" height="10" width="10" x="390.25" y="-164.67695915775516"/>
<rect fill="#DD3355" height="10" width="10" x="403" y="-180.86280051565785"/>
<rect fill="#DD3355" height="10" width="10" x="415.75" y="-194.40442119715283"/>
<rect fill="#DD3355" height="10" width="10" x="428.5" y="-213.5038666827792"/>
<rect fill="#DD3355" height="10" width="10" x="441.25" y="-229.66885537817035"/>
<rect fill="#DD3355" height="10" width="10" x="454" y="-252.29470878081875"/>
<rect fill="#DD3355" height="10" width="10" x="466.75" y="-271.65427017880296"/>
<rect fill="#DD3355" height="10" width="10" x="479.5" y="-298.5645153526194"/>
<rect fill="#DD3355" height="10" width="10" x="492.25" y="-321.82883622176706"/>
</g>
<g>
<g>
<line stroke="black" stroke-width="1" x1="0" x2="0" y1="0" y2="10"/>
<line stroke="black" stroke-width="1" x1="102" x2="102" y1="0" y2="10"/>
<line stroke="black" stroke-width="1" x1="204" x2="204" y1="0" y2="10"/>
<line stroke="black" stroke-width="1" x1="306.00000000000006" x2="306.00000000000006" y1="0" y2="10"/>
<line stroke="black" stroke-width="1" x1="408" x2="408" y1="0" y2="10"/>
<line stroke="black" stroke-width="1" x1="510" x2="510" y1="0" y2="10"/>
</g>
<line stroke="black" stroke-width="1" x1="0" x2="510" y1="0" y2="0"/>
<g>
<text font-size="12" text-anchor="middle" x="0" y="20">
0
</text>
<text font-size="12" text-anchor="middle" x="102" y="20">
0.2
</text>
<text font-size="12" text-anchor="middle" x="204" y="20">
0.4
</text>
<text font-size="12" text-anchor="middle" x="306.00000000000006" y="20">
0.6000000000000001
</text>
<text font-size="12" text-anchor="middle" x="408" y="20">
0.8
</text>
<text font-size="12" text-anchor="middle" x="510" y="20">
1
</text>
</g>
<text font-size="12" text-anchor="middle" x="255" y="30">
Йекс
</text>
</g>
<g>
<g>
<line stroke="black" stroke-width="1" x1="0" x2="-10" y1="-53.21599853488632" y2="-53.21599853488632"/>
<line stroke="black" stroke-width="1" x1="0" x2="-10" y1="-159.64799560465897" y2="-159.64799560465897"/>
<line stroke="black" stroke-width="1" x1="0" x2="-10" y1="-266.0799926744316" y2="-266.0799926744316"/>
</g>
<line stroke="black" stroke-width="1" x1="0" x2="0" y1="0" y2="-340"/>
<g>
<text dominant-baseline="middle" font-size="12" text-anchor="end" x="-15" y="-53.21599853488632">
2
</text>
<text dominant-baseline="middle" font-size="12" text-anchor="end" x="-15" y="-159.64799560465897">
4
</text>
<text dominant-baseline="middle" font-size="12" text-anchor="end" x="-15" y="-266.0799926744316">
6
</text>
</g>
<text font-size="12" text-anchor="middle" transform="rotate(-90 -30 -170)" x="-30" y="-182">
Уигрек
</text>
</g>
</g>
</svg>