<svg viewBox="0 0 600 400" xmlns="http://www.w3.org/2000/svg">
<g transform="translate(54, 364)">
<g>
<path d="M0,0 L0,0 L2.55,-0.2680834 L5.1,-0.540205 L7.65,-0.81641275 L10.2,-1.0967553 L12.75,-1.3812821 L15.3,-1.6700437 L17.85,-1.9630914 L20.4,-2.2604775 L22.95,-2.5622551 L25.5,-2.8684788 L28.05,-3.179203 L30.6,-3.4944842 L33.15,-3.8143797 L35.7,-4.138947 L38.25,-4.468246 L40.8,-4.802336 L43.35,-5.141279 L45.9,-5.4851375 L48.45,-5.833974 L51,-6.187854 L53.55,-6.546842 L56.1,-6.9110065 L58.65,-7.2804146 L61.2,-7.6551356 L63.75,-8.03524 L66.3,-8.4208 L68.85,-8.811889 L71.4,-9.208579 L73.95,-9.610949 L76.5,-10.019073 L79.05,-10.433031 L81.6,-10.852902 L84.15,-11.278768 L86.7,-11.710711 L89.25,-12.148814 L91.8,-12.5931635 L94.35,-13.043848 L96.9,-13.500954 L99.45,-13.964572 L102,-14.434794 L104.55,-14.911715 L107.1,-15.395427 L109.65,-15.886029 L112.2,-16.38362 L114.75,-16.888298 L117.3,-17.400166 L119.85,-17.919329 L122.4,-18.44589 L124.95,-18.979961 L127.5,-19.521646 L130.05,-20.071062 L132.6,-20.62832 L135.15,-21.193535 L137.7,-21.766825 L140.25,-22.34831 L142.8,-22.938114 L145.35,-23.536356 L147.9,-24.143167 L150.45,-24.758675 L153,-25.383009 L155.55,-26.016304 L158.1,-26.658695 L160.65,-27.31032 L163.2,-27.971321 L165.75,-28.64184 L168.3,-29.322025 L170.85,-30.012022 L173.4,-30.711983 L175.95,-31.422064 L178.5,-32.142418 L181.05,-32.87321 L183.6,-33.6146 L186.15,-34.366753 L188.7,-35.129837 L191.25,-35.90403 L193.8,-36.6895 L196.35,-37.486423 L198.9,-38.29499 L201.45,-39.115383 L204,-39.94779 L206.55,-40.792397 L209.1,-41.649403 L211.65,-42.519012 L214.2,-43.401424 L216.75,-44.296844 L219.3,-45.205482 L221.85,-46.127556 L224.4,-47.06328 L226.95,-48.01288 L229.5,-48.97658 L232.05,-49.954617 L234.6,-50.94722 L237.15,-51.95463 L239.7,-52.977097 L242.25,-54.014862 L244.8,-55.068184 L247.35,-56.137318 L249.9,-57.22253 L252.45,-58.324093 L255,-59.442272 L257.55,-60.57735 L260.1,-61.729614 L262.65,-62.89935 L265.2,-64.08685 L267.75,-65.29243 L270.3,-66.51638 L272.85,-67.75902 L275.4,-69.02067 L277.95,-70.30165 L280.5,-71.6023 L283.05,-72.92295 L285.6,-74.26395 L288.15,-75.62564 L290.7,-77.0084 L293.25,-78.41257 L295.8,-79.83854 L298.35,-81.286674 L300.9,-82.75738 L303.45,-84.25103 L306,-85.768036 L308.55,-87.308815 L311.1,-88.87378 L313.65,-90.46335 L316.2,-92.07797 L318.75,-93.71809 L321.3,-95.38414 L323.85,-97.07661 L326.4,-98.795944 L328.95,-100.54264 L331.5,-102.31718 L334.05,-104.12007 L336.6,-105.95181 L339.15,-107.812935 L341.7,-109.703964 L344.25,-111.62545 L346.8,-113.57793 L349.35,-115.56197 L351.9,-117.578156 L354.45,-119.627075 L357,-121.70931 L359.55,-123.825485 L362.1,-125.97622 L364.65,-128.16216 L367.2,-130.38393 L369.75,-132.64221 L372.3,-134.93768 L374.85,-137.27103 L377.4,-139.64294 L379.95,-142.05417 L382.5,-144.50542 L385.05,-146.99745 L387.6,-149.53104 L390.15,-152.10695 L392.7,-154.72598 L395.25,-157.38895 L397.8,-160.09668 L400.35,-162.85004 L402.9,-165.64987 L405.45,-168.49707 L408,-171.39255 L410.55,-174.3372 L413.1,-177.332 L415.65,-180.37788 L418.2,-183.47585 L420.75,-186.62689 L423.3,-189.83203 L425.85,-193.09232 L428.4,-196.40883 L430.95,-199.78264 L433.5,-203.21486 L436.05,-206.70665 L438.6,-210.25916 L441.15,-213.87357 L443.7,-217.55112 L446.25,-221.29301 L448.8,-225.10054 L451.35,-228.97498 L453.9,-232.91766 L456.45,-236.92995 L459,-241.01321 L461.55,-245.16884 L464.1,-249.3983 L466.65,-253.70306 L469.2,-258.08463 L471.75,-262.54453 L474.3,-267.08432 L476.85,-271.70566 L479.4,-276.41013 L481.95,-281.19946 L484.5,-286.07532 L487.05,-291.0395 L489.6,-296.09375 L492.15,-301.23996 L494.7,-306.47995 L497.25,-311.81564 L499.8,-317.24905 L502.35,-322.7821 L504.9,-328.41687 L507.45,-334.15546 L510,-340" fill="none" stroke="#DD0055" stroke-linejoin="round" stroke-width="2"/>
</g>
<g>
<path d="M0,-0.13337342 L0,-0.13337342 L1.275,-0.13370687 L2.55,-0.2239224 L3.825,-0.22544348 L5.1,-0.4958947 L6.375,-0.49846846 L7.65,-0.77165204 L8.925,-0.7755888 L10.2,-1.0515385 L11.475,-1.0568523 L12.75,-1.3356034 L14.025,-1.3423091 L15.3,-1.6238971 L16.575,-1.6320095 L17.85,-1.916471 L19.125,-1.9260051 L20.4,-2.2133772 L21.675,-2.2243488 L22.95,-2.514669 L24.225,-2.5270934 L25.5,-2.8204 L26.775,-2.834294 L28.05,-3.1306255 L29.325,-3.1460054 L30.6,-3.4454014 L31.875,-3.4622843 L33.15,-3.7647848 L34.425,-3.7831879 L35.7,-4.088834 L36.975,-4.108774 L38.25,-4.417607 L39.525,-4.4391036 L40.8,-4.751165 L42.075,-4.7742357 L43.35,-5.089568 L44.625,-5.114232 L45.9,-5.43288 L47.175,-5.4591556 L48.45,-5.7811627 L49.725,-5.80907 L51,-6.134481 L52.275,-6.16404 L53.55,-6.492901 L54.825,-6.524132 L56.1,-6.8564887 L57.375,-6.8894124 L58.65,-7.225312 L59.925,-7.25995 L61.2,-7.599441 L62.475,-7.6358147 L63.75,-7.9789457 L65.025,-8.0170765 L66.3,-8.363897 L67.575,-8.403809 L68.85,-8.754369 L70.125,-8.796083 L71.4,-9.1504345 L72.675,-9.193976 L73.95,-9.55217 L75.225,-9.597563 L76.5,-9.959652 L77.775,-10.00692 L79.05,-10.372958 L80.325,-10.422127 L81.6,-10.79217 L82.875,-10.843263 L84.15,-11.217365 L85.425,-11.270411 L86.7,-11.648629 L87.975,-11.703652 L89.25,-12.086044 L90.525,-12.143073 L91.8,-12.529696 L93.075,-12.5887575 L94.35,-12.979672 L95.625,-13.040794 L96.9,-13.436061 L98.175,-13.499271 L99.45,-13.898952 L100.725,-13.964281 L102,-14.368436 L103.275,-14.435913 L104.55,-14.844607 L105.825,-14.914264 L107.1,-15.327561 L108.375,-15.399426 L109.65,-15.817393 L110.925,-15.8914995 L112.2,-16.314201 L113.475,-16.390583 L114.75,-16.818089 L116.025,-16.896774 L117.3,-17.329153 L118.575,-17.41018 L119.85,-17.8475 L121.125,-17.9309 L122.4,-18.373236 L123.675,-18.459045 L124.95,-18.906466 L126.225,-18.99472 L127.5,-19.447302 L128.775,-19.538036 L130.05,-19.995853 L131.325,-20.089106 L132.6,-20.552235 L133.875,-20.648043 L135.15,-21.11656 L136.425,-21.214962 L137.7,-21.68895 L138.975,-21.789984 L140.25,-22.26952 L141.525,-22.373226 L142.8,-22.858393 L144.075,-22.964813 L145.35,-23.455694 L146.625,-23.564869 L147.9,-24.061548 L149.175,-24.173521 L150.45,-24.676085 L151.725,-24.790897 L153,-25.299435 L154.275,-25.417131 L155.55,-25.931728 L156.825,-26.052357 L158.1,-26.573105 L159.375,-26.696707 L160.65,-27.2237 L161.925,-27.350325 L163.2,-27.883656 L164.475,-28.01335 L165.75,-28.553114 L167.025,-28.685926 L168.3,-29.23222 L169.575,-29.3682 L170.85,-29.921124 L172.125,-30.060322 L173.4,-30.619974 L174.675,-30.762442 L175.95,-31.328928 L177.225,-31.474718 L178.5,-32.048138 L179.775,-32.197304 L181.05,-32.777767 L182.325,-32.930363 L183.6,-33.51798 L184.875,-33.674057 L186.15,-34.268932 L187.425,-34.428555 L188.7,-35.030804 L189.975,-35.194027 L191.25,-35.803757 L192.525,-35.97064 L193.8,-36.58797 L195.075,-36.758575 L196.35,-37.383625 L197.625,-37.55801 L198.9,-38.1909 L200.175,-38.369125 L201.45,-39.009975 L202.725,-39.192112 L204,-39.841045 L205.275,-40.027153 L206.55,-40.6843 L207.825,-40.874447 L209.1,-41.539932 L210.375,-41.734184 L211.65,-42.408142 L212.925,-42.60657 L214.2,-43.289135 L215.475,-43.491806 L216.75,-44.18311 L218.025,-44.390102 L219.3,-45.090286 L220.575,-45.301666 L221.85,-46.010868 L223.125,-46.226715 L224.4,-46.94508 L225.675,-47.16547 L226.95,-47.893147 L228.225,-48.118153 L229.5,-48.855286 L230.775,-49.08499 L232.05,-49.831734 L233.325,-50.06622 L234.6,-50.822727 L235.875,-51.062073 L237.15,-51.828503 L238.425,-52.072796 L239.7,-52.8493 L240.975,-53.098625 L242.25,-53.885376 L243.525,-54.13982 L244.8,-54.93698 L246.075,-55.196632 L247.35,-56.004368 L248.625,-56.26932 L249.9,-57.087807 L251.175,-57.358154 L252.45,-58.187565 L253.725,-58.463398 L255,-59.303913 L256.275,-59.585327 L257.55,-60.43713 L258.825,-60.724228 L260.1,-61.587498 L261.375,-61.880383 L262.65,-62.75531 L263.925,-63.054077 L265.2,-63.940857 L266.475,-64.24562 L267.75,-65.14445 L269.025,-65.4553 L270.3,-66.36637 L271.575,-66.68343 L272.85,-67.60696 L274.125,-67.93034 L275.4,-68.866516 L276.675,-69.196335 L277.95,-70.14538 L279.225,-70.481735 L280.5,-71.44386 L281.775,-71.78689 L283.05,-72.76232 L284.325,-73.11213 L285.6,-74.10108 L286.875,-74.4578 L288.15,-75.46051 L289.425,-75.824265 L290.7,-76.84095 L291.975,-77.21187 L293.25,-78.242775 L294.525,-78.620995 L295.8,-79.66636 L297.075,-80.051994 L298.35,-81.11207 L299.625,-81.50527 L300.9,-82.5803 L302.175,-82.9812 L303.45,-84.07144 L304.725,-84.480194 L306,-85.58589 L307.275,-86.00263 L308.55,-87.12408 L309.825,-87.54895 L311.1,-88.68639 L312.375,-89.11956 L313.65,-90.27328 L314.925,-90.71489 L316.2,-91.88517 L317.475,-92.33537 L318.75,-93.5225 L320.025,-93.98147 L321.3,-95.18572 L322.575,-95.65362 L323.85,-96.875305 L325.125,-97.35229 L326.4,-98.59171 L327.675,-99.077965 L328.95,-100.335434 L330.225,-100.831116 L331.5,-102.10694 L332.775,-102.612236 L334.05,-103.906746 L335.325,-104.42184 L336.6,-105.73535 L337.875,-106.26043 L339.15,-107.59328 L340.425,-108.128525 L341.7,-109.481064 L342.975,-110.02667 L344.25,-111.39923 L345.525,-111.95541 L346.8,-113.34834 L348.075,-113.91528 L349.35,-115.328964 L350.625,-115.90687 L351.9,-117.34167 L353.175,-117.93075 L354.45,-119.387024 L355.725,-119.9875 L357,-121.46565 L358.275,-122.07774 L359.55,-123.57815 L360.825,-124.20208 L362.1,-125.72514 L363.375,-126.36114 L364.65,-127.907265 L365.925,-128.55556 L367.2,-130.12517 L368.475,-130.786 L369.75,-132.3795 L371.025,-133.05312 L372.3,-134.67094 L373.575,-135.35759 L374.85,-137.0002 L376.125,-137.70013 L377.4,-139.36795 L378.675,-140.08144 L379.95,-141.77493 L381.225,-142.50223 L382.5,-144.22186 L383.775,-144.96324 L385.05,-146.7095 L386.325,-147.46523 L387.6,-149.2386 L388.875,-150.00897 L390.15,-151.80995 L391.425,-152.59525 L392.7,-154.42433 L393.975,-155.22485 L395.25,-157.08258 L396.525,-157.89862 L397.8,-159.78549 L399.075,-160.61739 L400.35,-162.53394 L401.625,-163.38197 L402.9,-165.32878 L404.175,-166.19328 L405.45,-168.1709 L406.725,-169.0522 L408,-171.06117 L409.275,-171.95961 L410.55,-174.00056 L411.825,-174.91647 L413.1,-176.98997 L414.375,-177.92372 L415.65,-180.03038 L416.925,-180.98232 L418.2,-183.12276 L419.475,-184.09325 L420.75,-186.26811 L422.025,-187.25752 L423.3,-189.46745 L424.575,-190.47618 L425.85,-192.72183 L427.125,-193.75026 L428.4,-196.03232 L429.675,-197.08084 L430.95,-199.40001 L432.225,-200.46904 L433.5,-202.82599 L434.775,-203.91594 L436.05,-206.3114 L437.325,-207.42271 L438.6,-209.85742 L439.875,-210.99052 L441.15,-213.46524 L442.425,-214.62057 L443.7,-217.13603 L444.975,-218.31406 L446.25,-220.87106 L447.525,-222.07225 L448.8,-224.67159 L450.075,-225.89641 L451.35,-228.53891 L452.625,-229.78784 L453.9,-232.47432 L455.175,-233.74788 L456.45,-236.47919 L457.725,-237.77788 L459,-240.55489 L460.275,-241.87923 L461.55,-244.70284 L462.825,-246.05334 L464.1,-248.92444 L465.375,-250.30168 L466.65,-253.22119 L467.925,-254.62572 L469.2,-257.59457 L470.475,-259.02695 L471.75,-262.04617 L473.025,-263.50696 L474.3,-266.57748 L475.575,-268.06732 L476.85,-271.19016 L478.125,-272.70963 L479.4,-275.88583 L480.675,-277.43555 L481.95,-280.66614 L483.225,-282.24677 L484.5,-285.53284 L485.775,-287.14502 L487.05,-290.48764 L488.325,-292.13205 L489.6,-295.53238 L490.875,-297.20966 L492.15,-300.66885 L493.425,-302.37973 L494.7,-305.89893 L495.975,-307.6441 L497.25,-311.22452 L498.525,-313.00473 L499.8,-316.64755 L501.075,-318.46356 L502.35,-322.17007 L503.625,-324.02264 L504.9,-327.79413 L506.175,-329.684 L507.45,-333.52176 L508.725,-335.44974" fill="none" stroke="#DD3355" stroke-linejoin="round" stroke-width="2"/>
</g>
<g>
<g>
<line stroke="black" stroke-width="1" x1="0" x2="0" y1="0" y2="10"/>
<line stroke="black" stroke-width="1" x1="102" x2="102" y1="0" y2="10"/>
<line stroke="black" stroke-width="1" x1="204" x2="204" y1="0" y2="10"/>
<line stroke="black" stroke-width="1" x1="306.00000000000006" x2="306.00000000000006" y1="0" y2="10"/>
<line stroke="black" stroke-width="1" x1="408" x2="408" y1="0" y2="10"/>
<line stroke="black" stroke-width="1" x1="510" x2="510" y1="0" y2="10"/>
</g>
<line stroke="black" stroke-width="1" x1="0" x2="510" y1="0" y2="0"/>
<g>
<text font-size="12" text-anchor="middle" x="0" y="20">
0
</text>
<text font-size="12" text-anchor="middle" x="102" y="20">
0.2
</text>
<text font-size="12" text-anchor="middle" x="204" y="20">
0.4
</text>
<text font-size="12" text-anchor="middle" x="306.00000000000006" y="20">
0.6000000000000001
</text>
<text font-size="12" text-anchor="middle" x="408" y="20">
0.8
</text>
<text font-size="12" text-anchor="middle" x="510" y="20">
1
</text>
</g>
<text font-size="12" text-anchor="middle" x="255" y="30">
Йекс
</text>
</g>
<g>
<g>
<line stroke="black" stroke-width="1" x1="0" x2="-10" y1="-53.21599853488632" y2="-53.21599853488632"/>
<line stroke="black" stroke-width="1" x1="0" x2="-10" y1="-159.64799560465897" y2="-159.64799560465897"/>
<line stroke="black" stroke-width="1" x1="0" x2="-10" y1="-266.0799926744316" y2="-266.0799926744316"/>
</g>
<line stroke="black" stroke-width="1" x1="0" x2="0" y1="0" y2="-340"/>
<g>
<text dominant-baseline="middle" font-size="12" text-anchor="end" x="-15" y="-53.21599853488632">
2
</text>
<text dominant-baseline="middle" font-size="12" text-anchor="end" x="-15" y="-159.64799560465897">
4
</text>
<text dominant-baseline="middle" font-size="12" text-anchor="end" x="-15" y="-266.0799926744316">
6
</text>
</g>
<text font-size="12" text-anchor="middle" transform="rotate(-90 -30 -170)" x="-30" y="-182">
Уигрек
</text>
</g>
</g>
</svg>