<svg viewBox="0 0 600 400" xmlns="http://www.w3.org/2000/svg">
<g transform="translate(54, 364)">
<g>
<rect fill="#DD3355" height="10" width="10" x="-5" y="-132.75383280367492"/>
<rect fill="#DD3355" height="10" width="10" x="8.076923076923077" y="-5"/>
<rect fill="#DD3355" height="10" width="10" x="21.153846153846153" y="-143.8535787993038"/>
<rect fill="#DD3355" height="10" width="10" x="34.23076923076923" y="-16.009178600543258"/>
<rect fill="#DD3355" height="10" width="10" x="47.30769230769231" y="-154.96119363971388"/>
<rect fill="#DD3355" height="10" width="10" x="60.38461538461539" y="-27.026161840722413"/>
<rect fill="#DD3355" height="10" width="10" x="73.46153846153847" y="-166.07668290330497"/>
<rect fill="#DD3355" height="10" width="10" x="86.53846153846155" y="-38.050955253421066"/>
<rect fill="#DD3355" height="10" width="10" x="99.61538461538461" y="-177.2000521724051"/>
<rect fill="#DD3355" height="10" width="10" x="112.6923076923077" y="-49.08356437543656"/>
<rect fill="#DD3355" height="10" width="10" x="125.76923076923077" y="-188.33130703333626"/>
<rect fill="#DD3355" height="10" width="10" x="138.84615384615384" y="-60.12399474747569"/>
<rect fill="#DD3355" height="10" width="10" x="151.92307692307693" y="-199.47045307634988"/>
<rect fill="#DD3355" height="10" width="10" x="165" y="-71.1722519142069"/>
<rect fill="#DD3355" height="10" width="10" x="178.0769230769231" y="-210.61749589567683"/>
<rect fill="#DD3355" height="10" width="10" x="191.15384615384616" y="-82.22834142420137"/>
<rect fill="#DD3355" height="10" width="10" x="204.23076923076923" y="-221.7724410895067"/>
<rect fill="#DD3355" height="10" width="10" x="217.30769230769232" y="-93.29226882997395"/>
<rect fill="#DD3355" height="10" width="10" x="230.3846153846154" y="-232.93529425999785"/>
<rect fill="#DD3355" height="10" width="10" x="243.46153846153848" y="-104.36403968797036"/>
<rect fill="#DD3355" height="10" width="10" x="256.53846153846155" y="-244.10606101328815"/>
<rect fill="#DD3355" height="10" width="10" x="269.61538461538464" y="-115.44365955858902"/>
<rect fill="#DD3355" height="10" width="10" x="282.6923076923077" y="-255.28474695948557"/>
<rect fill="#DD3355" height="10" width="10" x="295.7692307692308" y="-126.53113400615318"/>
<rect fill="#DD3355" height="10" width="10" x="308.84615384615387" y="-266.4713577126581"/>
<rect fill="#DD3355" height="10" width="10" x="321.9230769230769" y="-137.62646859894596"/>
<rect fill="#DD3355" height="10" width="10" x="335" y="-277.66589889088283"/>
<rect fill="#DD3355" height="10" width="10" x="348.0769230769231" y="-148.729668909176"/>
<rect fill="#DD3355" height="10" width="10" x="361.1538461538462" y="-288.8683761162072"/>
<rect fill="#DD3355" height="10" width="10" x="374.2307692307692" y="-159.84074051303892"/>
<rect fill="#DD3355" height="10" width="10" x="387.3076923076923" y="-300.078795014657"/>
<rect fill="#DD3355" height="10" width="10" x="400.3846153846154" y="-170.95968899064528"/>
<rect fill="#DD3355" height="10" width="10" x="413.46153846153845" y="-311.29716121624983"/>
<rect fill="#DD3355" height="10" width="10" x="426.53846153846155" y="-182.08651992608466"/>
<rect fill="#DD3355" height="10" width="10" x="439.61538461538464" y="-322.5234803550064"/>
<rect fill="#DD3355" height="10" width="10" x="452.6923076923077" y="-193.22123890739047"/>
<rect fill="#DD3355" height="10" width="10" x="465.7692307692308" y="-333.7577580689189"/>
<rect fill="#DD3355" height="10" width="10" x="478.84615384615387" y="-204.3638515265672"/>
<rect fill="#DD3355" height="10" width="10" x="491.92307692307696" y="-345"/>
<rect fill="#DD3355" height="10" width="10" x="505" y="-215.5143633795904"/>
</g>
<g>
<path d="M0,-127.75383 L0,-127.75383 L13.076923,0 L26.153847,-138.85358 L39.23077,-11.009178 L52.307693,-149.9612 L65.38461,-22.026161 L78.46154,-161.07668 L91.53846,-33.050957 L104.61539,-172.20006 L117.69231,-44.083565 L130.76923,-183.33131 L143.84616,-55.123993 L156.92308,-194.47046 L170,-66.17225 L183.07692,-205.6175 L196.15384,-77.22834 L209.23077,-216.77245 L222.3077,-88.29227 L235.38461,-227.93529 L248.46153,-99.36404 L261.53845,-239.10606 L274.6154,-110.44366 L287.69232,-250.28474 L300.76923,-121.531136 L313.84616,-261.47134 L326.92307,-132.62646 L340,-272.6659 L353.07693,-143.72968 L366.15384,-283.86838 L379.23077,-154.84074 L392.30768,-295.0788 L405.3846,-165.95969 L418.46155,-306.29715 L431.53845,-177.08652 L444.6154,-317.52347 L457.69232,-188.22124 L470.76923,-328.75775 L483.84616,-199.36385 L496.92307,-340 L510,-210.51436" fill="none" stroke="#DD3355" stroke-linejoin="round" stroke-width="2"/>
</g>
<g>
<g>
<line stroke="black" stroke-width="1" x1="0" x2="0" y1="0" y2="10"/>
<line stroke="black" stroke-width="1" x1="104.61538461538461" x2="104.61538461538461" y1="0" y2="10"/>
<line stroke="black" stroke-width="1" x1="209.23076923076923" x2="209.23076923076923" y1="0" y2="10"/>
<line stroke="black" stroke-width="1" x1="313.8461538461539" x2="313.8461538461539" y1="0" y2="10"/>
<line stroke="black" stroke-width="1" x1="418.46153846153845" x2="418.46153846153845" y1="0" y2="10"/>
</g>
<line stroke="black" stroke-width="1" x1="0" x2="510" y1="0" y2="0"/>
<g>
<text font-size="12" text-anchor="middle" x="0" y="20">
0
</text>
<text font-size="12" text-anchor="middle" x="104.61538461538461" y="20">
0.2
</text>
<text font-size="12" text-anchor="middle" x="209.23076923076923" y="20">
0.4
</text>
<text font-size="12" text-anchor="middle" x="313.8461538461539" y="20">
0.6000000000000001
</text>
<text font-size="12" text-anchor="middle" x="418.46153846153845" y="20">
0.8
</text>
</g>
<text font-size="12" text-anchor="middle" x="255" y="30">
Йекс
</text>
</g>
<g>
<g>
<line stroke="black" stroke-width="1" x1="0" x2="-10" y1="-59.383901531741266" y2="-59.383901531741266"/>
<line stroke="black" stroke-width="1" x1="0" x2="-10" y1="-121.4909383360173" y2="-121.4909383360173"/>
<line stroke="black" stroke-width="1" x1="0" x2="-10" y1="-183.59797514029339" y2="-183.59797514029339"/>
<line stroke="black" stroke-width="1" x1="0" x2="-10" y1="-245.70501194456943" y2="-245.70501194456943"/>
<line stroke="black" stroke-width="1" x1="0" x2="-10" y1="-307.8120487488454" y2="-307.8120487488454"/>
</g>
<line stroke="black" stroke-width="1" x1="0" x2="0" y1="0" y2="-340"/>
<g>
<text dominant-baseline="middle" font-size="12" text-anchor="end" x="-15" y="-59.383901531741266">
0.4
</text>
<text dominant-baseline="middle" font-size="12" text-anchor="end" x="-15" y="-121.4909383360173">
0.8
</text>
<text dominant-baseline="middle" font-size="12" text-anchor="end" x="-15" y="-183.59797514029339">
1.2000000000000002
</text>
<text dominant-baseline="middle" font-size="12" text-anchor="end" x="-15" y="-245.70501194456943">
1.6
</text>
<text dominant-baseline="middle" font-size="12" text-anchor="end" x="-15" y="-307.8120487488454">
2
</text>
</g>
<text font-size="12" text-anchor="middle" transform="rotate(-90 -30 -170)" x="-30" y="-182">
Уигрек
</text>
</g>
</g>
</svg>