<svg viewBox="0 0 600 400" xmlns="http://www.w3.org/2000/svg">
<g transform="translate(54, 364)">
<g>
<rect fill="#DD3355" height="10" width="10" x="-5" y="-5"/>
<rect fill="#DD3355" height="10" width="10" x="5.408163265306124" y="-5.830767803935277"/>
<rect fill="#DD3355" height="10" width="10" x="15.816326530612248" y="-6.7334219798463515"/>
<rect fill="#DD3355" height="10" width="10" x="26.224489795918366" y="-6.845144966142762"/>
<rect fill="#DD3355" height="10" width="10" x="36.632653061224495" y="-9.553744619590056"/>
<rect fill="#DD3355" height="10" width="10" x="47.04081632653061" y="-9.751029217988258"/>
<rect fill="#DD3355" height="10" width="10" x="57.44897959183673" y="-12.695892329424693"/>
<rect fill="#DD3355" height="10" width="10" x="67.85714285714286" y="-13.011047064776331"/>
<rect fill="#DD3355" height="10" width="10" x="78.26530612244899" y="-16.218253994024916"/>
<rect fill="#DD3355" height="10" width="10" x="88.6734693877551" y="-16.663951800071644"/>
<rect fill="#DD3355" height="10" width="10" x="99.08163265306122" y="-20.163882459724647"/>
<rect fill="#DD3355" height="10" width="10" x="109.48979591836735" y="-20.75499106019233"/>
<rect fill="#DD3355" height="10" width="10" x="119.89795918367346" y="-24.582327610210665"/>
<rect fill="#DD3355" height="10" width="10" x="130.30612244897958" y="-25.33626291234571"/>
<rect fill="#DD3355" height="10" width="10" x="140.71428571428572" y="-29.53065953313778"/>
<rect fill="#DD3355" height="10" width="10" x="151.12244897959184" y="-30.467796326645505"/>
<rect fill="#DD3355" height="10" width="10" x="161.53061224489798" y="-35.0746666172312"/>
<rect fill="#DD3355" height="10" width="10" x="171.9387755102041" y="-36.218826722358"/>
<rect fill="#DD3355" height="10" width="10" x="182.3469387755102" y="-41.29027061769833"/>
<rect fill="#DD3355" height="10" width="10" x="192.75510204081635" y="-42.669303557011794"/>
<rect fill="#DD3355" height="10" width="10" x="203.16326530612244" y="-48.26520036688457"/>
<rect fill="#DD3355" height="10" width="10" x="213.57142857142856" y="-49.91167483243723"/>
<rect fill="#DD3355" height="10" width="10" x="223.9795918367347" y="-56.100974483816366"/>
<rect fill="#DD3355" height="10" width="10" x="234.38775510204084" y="-58.053002782676984"/>
<rect fill="#DD3355" height="10" width="10" x="244.79591836734693" y="-64.91525402547748"/>
<rect fill="#DD3355" height="10" width="10" x="255.20408163265307" y="-67.21747647735263"/>
<rect fill="#DD3355" height="10" width="10" x="265.61224489795916" y="-74.84463896775705"/>
<rect fill="#DD3355" height="10" width="10" x="276.02040816326536" y="-77.54940110816945"/>
<rect fill="#DD3355" height="10" width="10" x="286.42857142857144" y="-86.04799826047258"/>
<rect fill="#DD3355" height="10" width="10" x="296.83673469387753" y="-89.21676093355453"/>
<rect fill="#DD3355" height="10" width="10" x="307.2448979591837" y="-98.71044266172089"/>
<rect fill="#DD3355" height="10" width="10" x="317.6530612244898" y="-102.4154739959417"/>
<rect fill="#DD3355" height="10" width="10" x="328.06122448979596" y="-113.0480734883183"/>
<rect fill="#DD3355" height="10" width="10" x="338.46938775510205" y="-117.37448274756466"/>
<rect fill="#DD3355" height="10" width="10" x="348.8775510204082" y="-129.3136699061763"/>
<rect fill="#DD3355" height="10" width="10" x="359.2857142857143" y="-134.36185681426977"/>
<rect fill="#DD3355" height="10" width="10" x="369.6938775510204" y="-147.8035137884727"/>
<rect fill="#DD3355" height="10" width="10" x="380.1020408163265" y="-153.69212378803894"/>
<rect fill="#DD3355" height="10" width="10" x="390.5102040816327" y="-168.86559620196394"/>
<rect fill="#DD3355" height="10" width="10" x="400.9183673469388" y="-175.7350930493001"/>
<rect fill="#DD3355" height="10" width="10" x="411.3265306122449" y="-192.90950539870468"/>
<rect fill="#DD3355" height="10" width="10" x="421.734693877551" y="-200.92649855229695"/>
<rect fill="#DD3355" height="10" width="10" x="432.1428571428571" y="-220.4183655129125"/>
<rect fill="#DD3355" height="10" width="10" x="442.55102040816325" y="-229.7808622582411"/>
<rect fill="#DD3355" height="10" width="10" x="452.9591836734694" y="-251.96328143187299"/>
<rect fill="#DD3355" height="10" width="10" x="463.36734693877554" y="-262.9070742660198"/>
<rect fill="#DD3355" height="10" width="10" x="473.7755102040817" y="-288.2208528858885"/>
<rect fill="#DD3355" height="10" width="10" x="484.1836734693877" y="-301.02730348147657"/>
<rect fill="#DD3355" height="10" width="10" x="494.59183673469386" y="-329.9944552212706"/>
<rect fill="#DD3355" height="10" width="10" x="505" y="-345"/>
</g>
<g>
<g>
<line stroke="black" stroke-width="1" x1="0" x2="0" y1="0" y2="10"/>
<line stroke="black" stroke-width="1" x1="104.08163265306122" x2="104.08163265306122" y1="0" y2="10"/>
<line stroke="black" stroke-width="1" x1="208.16326530612244" x2="208.16326530612244" y1="0" y2="10"/>
<line stroke="black" stroke-width="1" x1="312.24489795918373" x2="312.24489795918373" y1="0" y2="10"/>
<line stroke="black" stroke-width="1" x1="416.3265306122449" x2="416.3265306122449" y1="0" y2="10"/>
</g>
<line stroke="black" stroke-width="1" x1="0" x2="510" y1="0" y2="0"/>
<g>
<text font-size="12" text-anchor="middle" x="0" y="20">
0
</text>
<text font-size="12" text-anchor="middle" x="104.08163265306122" y="20">
0.2
</text>
<text font-size="12" text-anchor="middle" x="208.16326530612244" y="20">
0.4
</text>
<text font-size="12" text-anchor="middle" x="312.24489795918373" y="20">
0.6000000000000001
</text>
<text font-size="12" text-anchor="middle" x="416.3265306122449" y="20">
0.8
</text>
</g>
<text font-size="12" text-anchor="middle" x="255" y="30">
Йекс
</text>
</g>
<g>
<g>
<line stroke="black" stroke-width="1" x1="0" x2="-10" y1="-58.890071071635106" y2="-58.890071071635106"/>
<line stroke="black" stroke-width="1" x1="0" x2="-10" y1="-118.17804802888936" y2="-118.17804802888936"/>
<line stroke="black" stroke-width="1" x1="0" x2="-10" y1="-177.46602498614362" y2="-177.46602498614362"/>
<line stroke="black" stroke-width="1" x1="0" x2="-10" y1="-236.75400194339792" y2="-236.75400194339792"/>
<line stroke="black" stroke-width="1" x1="0" x2="-10" y1="-296.04197890065217" y2="-296.04197890065217"/>
</g>
<line stroke="black" stroke-width="1" x1="0" x2="0" y1="0" y2="-340"/>
<g>
<text dominant-baseline="middle" font-size="12" text-anchor="end" x="-15" y="-58.890071071635106">
2
</text>
<text dominant-baseline="middle" font-size="12" text-anchor="end" x="-15" y="-118.17804802888936">
3
</text>
<text dominant-baseline="middle" font-size="12" text-anchor="end" x="-15" y="-177.46602498614362">
4
</text>
<text dominant-baseline="middle" font-size="12" text-anchor="end" x="-15" y="-236.75400194339792">
5
</text>
<text dominant-baseline="middle" font-size="12" text-anchor="end" x="-15" y="-296.04197890065217">
6
</text>
</g>
<text font-size="12" text-anchor="middle" transform="rotate(-90 -30 -170)" x="-30" y="-182">
Уигрек
</text>
</g>
</g>
</svg>