<svg viewBox="0 0 600 400" xmlns="http://www.w3.org/2000/svg">
<g transform="translate(54, 364)">
<g>
<rect fill="#DD3355" height="10" width="10" x="-5" y="-5"/>
<rect fill="#DD3355" height="10" width="10" x="5.408163265306124" y="-5.789891320937668"/>
<rect fill="#DD3355" height="10" width="10" x="15.816326530612248" y="-7.437284333509174"/>
<rect fill="#DD3355" height="10" width="10" x="26.224489795918366" y="-8.357193458224463"/>
<rect fill="#DD3355" height="10" width="10" x="36.632653061224495" y="-10.177093337221384"/>
<rect fill="#DD3355" height="10" width="10" x="47.04081632653061" y="-11.240288639211677"/>
<rect fill="#DD3355" height="10" width="10" x="57.44897959183673" y="-13.251400598235211"/>
<rect fill="#DD3355" height="10" width="10" x="67.85714285714286" y="-14.473248982521211"/>
<rect fill="#DD3355" height="10" width="10" x="78.26530612244899" y="-16.697008427217884"/>
<rect fill="#DD3355" height="10" width="10" x="88.6734693877551" y="-18.095287395348784"/>
<rect fill="#DD3355" height="10" width="10" x="99.08163265306122" y="-20.55627168206057"/>
<rect fill="#DD3355" height="10" width="10" x="109.48979591836735" y="-22.151537665223078"/>
<rect fill="#DD3355" height="10" width="10" x="119.89795918367346" y="-24.877950165436292"/>
<rect fill="#DD3355" height="10" width="10" x="130.30612244897958" y="-26.69397347272333"/>
<rect fill="#DD3355" height="10" width="10" x="140.71428571428572" y="-29.718213278172072"/>
<rect fill="#DD3355" height="10" width="10" x="151.12244897959184" y="-31.782492123022834"/>
<rect fill="#DD3355" height="10" width="10" x="161.53061224489798" y="-35.14182542531884"/>
<rect fill="#DD3355" height="10" width="10" x="171.9387755102041" y="-37.486194059688735"/>
<rect fill="#DD3355" height="10" width="10" x="182.3469387755102" y="-41.22354651221209"/>
<rect fill="#DD3355" height="10" width="10" x="192.75510204081635" y="-43.88489561807209"/>
<rect fill="#DD3355" height="10" width="10" x="203.16326530612244" y="-48.04978896729653"/>
<rect fill="#DD3355" height="10" width="10" x="213.57142857142856" y="-51.070920256047735"/>
<rect fill="#DD3355" height="10" width="10" x="223.9795918367347" y="-55.720581376396986"/>
<rect fill="#DD3355" height="10" width="10" x="234.38775510204084" y="-59.15122298688184"/>
<rect fill="#DD3355" height="10" width="10" x="244.79591836734693" y="-64.35189936852818"/>
<rect fill="#DD3355" height="10" width="10" x="255.20408163265307" y="-68.24991433019449"/>
<rect fill="#DD3355" height="10" width="10" x="265.61224489795916" y="-74.07843730270326"/>
<rect fill="#DD3355" height="10" width="10" x="276.02040816326536" y="-78.51126428714977"/>
<rect fill="#DD3355" height="10" width="10" x="286.42857142857144" y="-85.05691012469472"/>
<rect fill="#DD3355" height="10" width="10" x="296.83673469387753" y="-90.10328425213716"/>
<rect fill="#DD3355" height="10" width="10" x="307.2448979591837" y="-97.46999418649297"/>
<rect fill="#DD3355" height="10" width="10" x="317.6530612244898" y="-103.2220061661261"/>
<rect fill="#DD3355" height="10" width="10" x="328.06122448979596" y="-111.53103971736876"/>
<rect fill="#DD3355" height="10" width="10" x="338.46938775510205" y="-118.09660456143177"/>
<rect fill="#DD3355" height="10" width="10" x="348.8775510204082" y="-127.4897170916124"/>
<rect fill="#DD3355" height="10" width="10" x="359.2857142857143" y="-134.99553965386932"/>
<rect fill="#DD3355" height="10" width="10" x="369.6938775510204" y="-145.63879541952056"/>
<rect fill="#DD3355" height="10" width="10" x="380.1020408163265" y="-154.2339398266624"/>
<rect fill="#DD3355" height="10" width="10" x="390.5102040816327" y="-166.32229701229997"/>
<rect fill="#DD3355" height="10" width="10" x="400.9183673469388" y="-176.18249163526124"/>
<rect fill="#DD3355" height="10" width="10" x="411.3265306122449" y="-189.94532710235174"/>
<rect fill="#DD3355" height="10" width="10" x="421.734693877551" y="-201.2781672580883"/>
<rect fill="#DD3355" height="10" width="10" x="432.1428571428571" y="-216.98594757042892"/>
<rect fill="#DD3355" height="10" width="10" x="442.55102040816325" y="-230.03719617711812"/>
<rect fill="#DD3355" height="10" width="10" x="452.9591836734694" y="-248.0095497974871"/>
<rect fill="#DD3355" height="10" width="10" x="463.36734693877554" y="-263.0707836590639"/>
<rect fill="#DD3355" height="10" width="10" x="473.7755102040817" y="-283.6862895040322"/>
<rect fill="#DD3355" height="10" width="10" x="484.1836734693877" y="-301.1041982270958"/>
<rect fill="#DD3355" height="10" width="10" x="494.59183673469386" y="-324.8122811297776"/>
<rect fill="#DD3355" height="10" width="10" x="505" y="-345"/>
</g>
<g>
<g>
<line stroke="black" stroke-width="1" x1="0" x2="0" y1="0" y2="10"/>
<line stroke="black" stroke-width="1" x1="104.08163265306122" x2="104.08163265306122" y1="0" y2="10"/>
<line stroke="black" stroke-width="1" x1="208.16326530612244" x2="208.16326530612244" y1="0" y2="10"/>
<line stroke="black" stroke-width="1" x1="312.24489795918373" x2="312.24489795918373" y1="0" y2="10"/>
<line stroke="black" stroke-width="1" x1="416.3265306122449" x2="416.3265306122449" y1="0" y2="10"/>
</g>
<line stroke="black" stroke-width="1" x1="0" x2="510" y1="0" y2="0"/>
<g>
<text font-size="12" text-anchor="middle" x="0" y="20">
0
</text>
<text font-size="12" text-anchor="middle" x="104.08163265306122" y="20">
0.2
</text>
<text font-size="12" text-anchor="middle" x="208.16326530612244" y="20">
0.4
</text>
<text font-size="12" text-anchor="middle" x="312.24489795918373" y="20">
0.6000000000000001
</text>
<text font-size="12" text-anchor="middle" x="416.3265306122449" y="20">
0.8
</text>
</g>
<text font-size="12" text-anchor="middle" x="255" y="30">
Йекс
</text>
</g>
<g>
<g>
<line stroke="black" stroke-width="1" x1="0" x2="-10" y1="-55.99248768252823" y2="-55.99248768252823"/>
<line stroke="black" stroke-width="1" x1="0" x2="-10" y1="-168.73411828653775" y2="-168.73411828653775"/>
<line stroke="black" stroke-width="1" x1="0" x2="-10" y1="-281.4757488905473" y2="-281.4757488905473"/>
</g>
<line stroke="black" stroke-width="1" x1="0" x2="0" y1="0" y2="-340"/>
<g>
<text dominant-baseline="middle" font-size="12" text-anchor="end" x="-15" y="-55.99248768252823">
2
</text>
<text dominant-baseline="middle" font-size="12" text-anchor="end" x="-15" y="-168.73411828653775">
4
</text>
<text dominant-baseline="middle" font-size="12" text-anchor="end" x="-15" y="-281.4757488905473">
6
</text>
</g>
<text font-size="12" text-anchor="middle" transform="rotate(-90 -30 -170)" x="-30" y="-182">
Уигрек
</text>
</g>
</g>
</svg>