<svg viewBox="0 0 600 400" xmlns="http://www.w3.org/2000/svg">
<g transform="translate(54, 364)">
<g>
<rect fill="#DD3355" height="10" width="10" x="-5" y="-5"/>
<rect fill="#DD3355" height="10" width="10" x="5.625000000000002" y="-73.30928032593869"/>
<rect fill="#DD3355" height="10" width="10" x="16.250000000000004" y="-286.07259828730525"/>
<rect fill="#DD3355" height="10" width="10" x="26.875" y="-72.286174276057"/>
<rect fill="#DD3355" height="10" width="10" x="37.50000000000001" y="-288.73264881432317"/>
<rect fill="#DD3355" height="10" width="10" x="48.125" y="-74.90233856153992"/>
<rect fill="#DD3355" height="10" width="10" x="58.75" y="-291.29689319356277"/>
<rect fill="#DD3355" height="10" width="10" x="69.37500000000001" y="-77.51910386957843"/>
<rect fill="#DD3355" height="10" width="10" x="80.00000000000001" y="-293.8604748205894"/>
<rect fill="#DD3355" height="10" width="10" x="90.625" y="-80.13522647047019"/>
<rect fill="#DD3355" height="10" width="10" x="101.25" y="-296.42342637522586"/>
<rect fill="#DD3355" height="10" width="10" x="111.87500000000001" y="-82.75070609704161"/>
<rect fill="#DD3355" height="10" width="10" x="122.5" y="-298.98574802345536"/>
<rect fill="#DD3355" height="10" width="10" x="133.125" y="-85.36554290718439"/>
<rect fill="#DD3355" height="10" width="10" x="143.75000000000003" y="-301.54743992008855"/>
<rect fill="#DD3355" height="10" width="10" x="154.375" y="-87.97973705887466"/>
<rect fill="#DD3355" height="10" width="10" x="165.00000000000003" y="-304.10850221990523"/>
<rect fill="#DD3355" height="10" width="10" x="175.625" y="-90.59328871007308"/>
<rect fill="#DD3355" height="10" width="10" x="186.25" y="-306.66893507763984"/>
<rect fill="#DD3355" height="10" width="10" x="196.87500000000003" y="-93.20619801868085"/>
<rect fill="#DD3355" height="10" width="10" x="207.5" y="-309.2287386479984"/>
<rect fill="#DD3355" height="10" width="10" x="218.125" y="-95.81846514257063"/>
<rect fill="#DD3355" height="10" width="10" x="228.75000000000003" y="-311.78791308563933"/>
<rect fill="#DD3355" height="10" width="10" x="239.37500000000003" y="-98.430090239577"/>
<rect fill="#DD3355" height="10" width="10" x="250" y="-314.3464585451901"/>
<rect fill="#DD3355" height="10" width="10" x="260.625" y="-101.04107346749286"/>
<rect fill="#DD3355" height="10" width="10" x="271.25" y="-316.9043751812318"/>
<rect fill="#DD3355" height="10" width="10" x="281.87500000000006" y="-103.65141498406956"/>
<rect fill="#DD3355" height="10" width="10" x="292.50000000000006" y="-319.4616631483145"/>
<rect fill="#DD3355" height="10" width="10" x="303.12499999999994" y="-106.26111494702745"/>
<rect fill="#DD3355" height="10" width="10" x="313.75" y="-322.018322600954"/>
<rect fill="#DD3355" height="10" width="10" x="324.375" y="-108.87017351404053"/>
<rect fill="#DD3355" height="10" width="10" x="335.00000000000006" y="-324.5743536936182"/>
<rect fill="#DD3355" height="10" width="10" x="345.62500000000006" y="-111.47859084274472"/>
<rect fill="#DD3355" height="10" width="10" x="356.25" y="-327.1297565807408"/>
<rect fill="#DD3355" height="10" width="10" x="366.875" y="-114.08636709074857"/>
<rect fill="#DD3355" height="10" width="10" x="377.5" y="-329.6845314167184"/>
<rect fill="#DD3355" height="10" width="10" x="388.125" y="-116.69350241560473"/>
<rect fill="#DD3355" height="10" width="10" x="398.75000000000006" y="-332.2386783559169"/>
<rect fill="#DD3355" height="10" width="10" x="409.375" y="-119.2999969748373"/>
<rect fill="#DD3355" height="10" width="10" x="420" y="-334.7921975526459"/>
<rect fill="#DD3355" height="10" width="10" x="430.625" y="-121.9058509259323"/>
<rect fill="#DD3355" height="10" width="10" x="441.25" y="-337.34508916119285"/>
<rect fill="#DD3355" height="10" width="10" x="451.875" y="-124.51106442632936"/>
<rect fill="#DD3355" height="10" width="10" x="462.50000000000006" y="-339.8973533358046"/>
<rect fill="#DD3355" height="10" width="10" x="473.125" y="-127.11563763344196"/>
<rect fill="#DD3355" height="10" width="10" x="483.75000000000006" y="-342.44899023068143"/>
<rect fill="#DD3355" height="10" width="10" x="494.375" y="-129.71957070463122"/>
<rect fill="#DD3355" height="10" width="10" x="505" y="-345"/>
</g>
<g>
<path d="M0,0 L0,0 L10.625,-68.30928 L21.25,-281.0726 L31.875,-67.28617 L42.5,-283.73264 L53.125,-69.902336 L63.75,-286.2969 L74.375,-72.519104 L85,-288.86047 L95.625,-75.13522 L106.25,-291.42343 L116.875,-77.75071 L127.5,-293.98575 L138.125,-80.36554 L148.75,-296.54745 L159.375,-82.97974 L170,-299.1085 L180.625,-85.59329 L191.25,-301.66895 L201.875,-88.2062 L212.5,-304.22873 L223.125,-90.81847 L233.75,-306.7879 L244.375,-93.43009 L255,-309.34647 L265.625,-96.04108 L276.25,-311.9044 L286.875,-98.65141 L297.5,-314.46167 L308.125,-101.261116 L318.75,-317.0183 L329.375,-103.87017 L340,-319.57434 L350.625,-106.47859 L361.25,-322.12976 L371.875,-109.086365 L382.5,-324.68454 L393.125,-111.693504 L403.75,-327.23868 L414.375,-114.299995 L425,-329.7922 L435.625,-116.90585 L446.25,-332.3451 L456.875,-119.51106 L467.5,-334.89734 L478.125,-122.11564 L488.75,-337.449 L499.375,-124.719574 L510,-340" fill="none" stroke="#DD3355" stroke-linejoin="round" stroke-width="2"/>
</g>
<g>
<g>
<line stroke="black" stroke-width="1" x1="0" x2="0" y1="0" y2="10"/>
<line stroke="black" stroke-width="1" x1="106.25" x2="106.25" y1="0" y2="10"/>
<line stroke="black" stroke-width="1" x1="212.5" x2="212.5" y1="0" y2="10"/>
<line stroke="black" stroke-width="1" x1="318.75000000000006" x2="318.75000000000006" y1="0" y2="10"/>
<line stroke="black" stroke-width="1" x1="425" x2="425" y1="0" y2="10"/>
</g>
<line stroke="black" stroke-width="1" x1="0" x2="510" y1="0" y2="0"/>
<g>
<text font-size="12" text-anchor="middle" x="0" y="20">
0
</text>
<text font-size="12" text-anchor="middle" x="106.25" y="20">
0.2
</text>
<text font-size="12" text-anchor="middle" x="212.5" y="20">
0.4
</text>
<text font-size="12" text-anchor="middle" x="318.75000000000006" y="20">
0.6000000000000001
</text>
<text font-size="12" text-anchor="middle" x="425" y="20">
0.8
</text>
</g>
<text font-size="12" text-anchor="middle" x="255" y="30">
Йекс
</text>
</g>
<g>
<g>
<line stroke="black" stroke-width="1" x1="0" x2="-10" y1="-2.1721841004121862" y2="-2.1721841004121862"/>
<line stroke="black" stroke-width="1" x1="0" x2="-10" y1="-109.31996621409452" y2="-109.31996621409452"/>
<line stroke="black" stroke-width="1" x1="0" x2="-10" y1="-216.46774832777686" y2="-216.46774832777686"/>
<line stroke="black" stroke-width="1" x1="0" x2="-10" y1="-323.61553044145927" y2="-323.61553044145927"/>
</g>
<line stroke="black" stroke-width="1" x1="0" x2="0" y1="0" y2="-340"/>
<g>
<text dominant-baseline="middle" font-size="12" text-anchor="end" x="-15" y="-2.1721841004121862">
0
</text>
<text dominant-baseline="middle" font-size="12" text-anchor="end" x="-15" y="-109.31996621409452">
1
</text>
<text dominant-baseline="middle" font-size="12" text-anchor="end" x="-15" y="-216.46774832777686">
2
</text>
<text dominant-baseline="middle" font-size="12" text-anchor="end" x="-15" y="-323.61553044145927">
3
</text>
</g>
<text font-size="12" text-anchor="middle" transform="rotate(-90 -30 -170)" x="-30" y="-182">
Уигрек
</text>
</g>
</g>
</svg>