<svg viewBox="0 0 600 400" xmlns="http://www.w3.org/2000/svg">
<g transform="translate(54, 364)">
<g>
<rect fill="#DD3355" height="10" width="10" x="-5" y="-76.22033029384134"/>
<rect fill="#DD3355" height="10" width="10" x="5.408163265306124" y="-5"/>
<rect fill="#DD3355" height="10" width="10" x="15.816326530612248" y="-71.37730754160613"/>
<rect fill="#DD3355" height="10" width="10" x="26.224489795918366" y="-285.6535698549134"/>
<rect fill="#DD3355" height="10" width="10" x="36.632653061224495" y="-70.3469262596303"/>
<rect fill="#DD3355" height="10" width="10" x="47.04081632653061" y="-288.3325358061667"/>
<rect fill="#DD3355" height="10" width="10" x="57.44897959183673" y="-72.98169389749961"/>
<rect fill="#DD3355" height="10" width="10" x="67.85714285714286" y="-290.9150143391483"/>
<rect fill="#DD3355" height="10" width="10" x="78.26530612244899" y="-75.6170668317569"/>
<rect fill="#DD3355" height="10" width="10" x="88.6734693877551" y="-293.4968254071354"/>
<rect fill="#DD3355" height="10" width="10" x="99.08163265306122" y="-78.25179248861998"/>
<rect fill="#DD3355" height="10" width="10" x="109.48979591836735" y="-296.07800192233555"/>
<rect fill="#DD3355" height="10" width="10" x="119.89795918367346" y="-80.8858705990209"/>
<rect fill="#DD3355" height="10" width="10" x="130.30612244897958" y="-298.65854405190737"/>
<rect fill="#DD3355" height="10" width="10" x="140.71428571428572" y="-83.51930132197124"/>
<rect fill="#DD3355" height="10" width="10" x="151.12244897959184" y="-301.2384519517675"/>
<rect fill="#DD3355" height="10" width="10" x="161.53061224489798" y="-86.15208481657602"/>
<rect fill="#DD3355" height="10" width="10" x="171.9387755102041" y="-303.81772577779293"/>
<rect fill="#DD3355" height="10" width="10" x="182.3469387755102" y="-88.78422124191194"/>
<rect fill="#DD3355" height="10" width="10" x="192.75510204081635" y="-306.3963656858202"/>
<rect fill="#DD3355" height="10" width="10" x="203.16326530612244" y="-91.41571075700637"/>
<rect fill="#DD3355" height="10" width="10" x="213.57142857142856" y="-308.9743718316556"/>
<rect fill="#DD3355" height="10" width="10" x="223.9795918367347" y="-94.04655352085592"/>
<rect fill="#DD3355" height="10" width="10" x="234.38775510204084" y="-311.5517443710545"/>
<rect fill="#DD3355" height="10" width="10" x="244.79591836734693" y="-96.67674969241479"/>
<rect fill="#DD3355" height="10" width="10" x="255.20408163265307" y="-314.1284834597489"/>
<rect fill="#DD3355" height="10" width="10" x="265.61224489795916" y="-99.30629943059662"/>
<rect fill="#DD3355" height="10" width="10" x="276.02040816326536" y="-316.70458925341507"/>
<rect fill="#DD3355" height="10" width="10" x="286.42857142857144" y="-101.93520289428167"/>
<rect fill="#DD3355" height="10" width="10" x="296.83673469387753" y="-319.28006190770566"/>
<rect fill="#DD3355" height="10" width="10" x="307.2448979591837" y="-104.5634602423046"/>
<rect fill="#DD3355" height="10" width="10" x="317.6530612244898" y="-321.854901578232"/>
<rect fill="#DD3355" height="10" width="10" x="328.06122448979596" y="-107.19107163346536"/>
<rect fill="#DD3355" height="10" width="10" x="338.46938775510205" y="-324.4291084205597"/>
<rect fill="#DD3355" height="10" width="10" x="348.8775510204082" y="-109.81803722651708"/>
<rect fill="#DD3355" height="10" width="10" x="359.2857142857143" y="-327.00268259022334"/>
<rect fill="#DD3355" height="10" width="10" x="369.6938775510204" y="-112.44435718018543"/>
<rect fill="#DD3355" height="10" width="10" x="380.1020408163265" y="-329.57562424271725"/>
<rect fill="#DD3355" height="10" width="10" x="390.5102040816327" y="-115.07003165315808"/>
<rect fill="#DD3355" height="10" width="10" x="400.9183673469388" y="-332.14793353350063"/>
<rect fill="#DD3355" height="10" width="10" x="411.3265306122449" y="-117.69506080406404"/>
<rect fill="#DD3355" height="10" width="10" x="421.734693877551" y="-334.71961061798515"/>
<rect fill="#DD3355" height="10" width="10" x="432.1428571428571" y="-120.3194447915168"/>
<rect fill="#DD3355" height="10" width="10" x="442.55102040816325" y="-337.2906556515567"/>
<rect fill="#DD3355" height="10" width="10" x="452.9591836734694" y="-122.94318377407278"/>
<rect fill="#DD3355" height="10" width="10" x="463.36734693877554" y="-339.861068789551"/>
<rect fill="#DD3355" height="10" width="10" x="473.7755102040817" y="-125.56627791026207"/>
<rect fill="#DD3355" height="10" width="10" x="484.1836734693877" y="-342.4308501872775"/>
<rect fill="#DD3355" height="10" width="10" x="494.59183673469386" y="-128.18872735857516"/>
<rect fill="#DD3355" height="10" width="10" x="505" y="-344.99999999999994"/>
</g>
<g>
<path d="M0,-71.22033 L0,-71.22033 L10.408163,0 L20.816326,-66.377304 L31.22449,-280.65356 L41.632652,-65.346924 L52.040817,-283.33255 L62.44898,-67.9817 L72.85714,-285.915 L83.265305,-70.617065 L93.67347,-288.49683 L104.081635,-73.25179 L114.4898,-291.078 L124.89796,-75.88587 L135.30612,-293.65854 L145.71428,-78.5193 L156.12245,-296.23846 L166.53061,-81.152084 L176.93878,-298.81772 L187.34694,-83.78422 L197.7551,-301.39636 L208.16327,-86.41571 L218.57143,-303.97437 L228.9796,-89.046555 L239.38776,-306.55176 L249.79591,-91.67675 L260.20407,-309.12848 L270.61224,-94.3063 L281.02042,-311.7046 L291.42856,-96.9352 L301.83673,-314.28006 L312.2449,-99.56346 L322.65308,-316.8549 L333.06122,-102.19107 L343.4694,-319.4291 L353.87756,-104.81804 L364.2857,-322.0027 L374.69388,-107.44436 L385.10205,-324.57562 L395.5102,-110.07003 L405.91837,-327.14792 L416.32654,-112.69506 L426.73468,-329.7196 L437.14285,-115.31944 L447.55103,-332.29065 L457.9592,-117.943184 L468.36734,-334.86108 L478.7755,-120.56628 L489.1837,-337.43085 L499.59183,-123.18873 L510,-340" fill="none" stroke="#DD3355" stroke-linejoin="round" stroke-width="2"/>
</g>
<g>
<g>
<line stroke="black" stroke-width="1" x1="0" x2="0" y1="0" y2="10"/>
<line stroke="black" stroke-width="1" x1="104.08163265306122" x2="104.08163265306122" y1="0" y2="10"/>
<line stroke="black" stroke-width="1" x1="208.16326530612244" x2="208.16326530612244" y1="0" y2="10"/>
<line stroke="black" stroke-width="1" x1="312.24489795918373" x2="312.24489795918373" y1="0" y2="10"/>
<line stroke="black" stroke-width="1" x1="416.3265306122449" x2="416.3265306122449" y1="0" y2="10"/>
</g>
<line stroke="black" stroke-width="1" x1="0" x2="510" y1="0" y2="0"/>
<g>
<text font-size="12" text-anchor="middle" x="0" y="20">
0
</text>
<text font-size="12" text-anchor="middle" x="104.08163265306122" y="20">
0.2
</text>
<text font-size="12" text-anchor="middle" x="208.16326530612244" y="20">
0.4
</text>
<text font-size="12" text-anchor="middle" x="312.24489795918373" y="20">
0.6000000000000001
</text>
<text font-size="12" text-anchor="middle" x="416.3265306122449" y="20">
0.8
</text>
</g>
<text font-size="12" text-anchor="middle" x="255" y="30">
Йекс
</text>
</g>
<g>
<g>
<line stroke="black" stroke-width="1" x1="0" x2="-10" y1="-106.71063232937459" y2="-106.71063232937459"/>
<line stroke="black" stroke-width="1" x1="0" x2="-10" y1="-214.63012219253" y2="-214.63012219253"/>
<line stroke="black" stroke-width="1" x1="0" x2="-10" y1="-322.54961205568543" y2="-322.54961205568543"/>
</g>
<line stroke="black" stroke-width="1" x1="0" x2="0" y1="0" y2="-340"/>
<g>
<text dominant-baseline="middle" font-size="12" text-anchor="end" x="-15" y="-106.71063232937459">
1
</text>
<text dominant-baseline="middle" font-size="12" text-anchor="end" x="-15" y="-214.63012219253">
2
</text>
<text dominant-baseline="middle" font-size="12" text-anchor="end" x="-15" y="-322.54961205568543">
3
</text>
</g>
<text font-size="12" text-anchor="middle" transform="rotate(-90 -30 -170)" x="-30" y="-182">
Уигрек
</text>
</g>
</g>
</svg>