<svg viewBox="0 0 600 400" xmlns="http://www.w3.org/2000/svg">
<g transform="translate(54, 364)">
<g>
<rect fill="#DD3355" height="10" width="10" x="-5" y="-5"/>
<rect fill="#DD3355" height="10" width="10" x="5.408163265306124" y="-63.54130820763616"/>
<rect fill="#DD3355" height="10" width="10" x="15.816326530612248" y="-120.08907490709583"/>
<rect fill="#DD3355" height="10" width="10" x="26.224489795918366" y="-296.21873706829876"/>
<rect fill="#DD3355" height="10" width="10" x="36.632653061224495" y="-119.24212758249466"/>
<rect fill="#DD3355" height="10" width="10" x="47.04081632653061" y="-298.4207792489939"/>
<rect fill="#DD3355" height="10" width="10" x="57.44897959183673" y="-121.4078398686865"/>
<rect fill="#DD3355" height="10" width="10" x="67.85714285714286" y="-300.54351121492454"/>
<rect fill="#DD3355" height="10" width="10" x="78.26530612244899" y="-123.57404969318348"/>
<rect fill="#DD3355" height="10" width="10" x="88.6734693877551" y="-302.66569454153034"/>
<rect fill="#DD3355" height="10" width="10" x="99.08163265306122" y="-125.73972747205121"/>
<rect fill="#DD3355" height="10" width="10" x="109.48979591836735" y="-304.7873562818112"/>
<rect fill="#DD3355" height="10" width="10" x="119.89795918367346" y="-127.90487298412269"/>
<rect fill="#DD3355" height="10" width="10" x="130.30612244897958" y="-306.9084965731691"/>
<rect fill="#DD3355" height="10" width="10" x="140.71428571428572" y="-130.06948636010185"/>
<rect fill="#DD3355" height="10" width="10" x="151.12244897959184" y="-309.02911554376203"/>
<rect fill="#DD3355" height="10" width="10" x="161.53061224489798" y="-132.2335677307684"/>
<rect fill="#DD3355" height="10" width="10" x="171.9387755102041" y="-311.1492133217176"/>
<rect fill="#DD3355" height="10" width="10" x="182.3469387755102" y="-134.39711722688043"/>
<rect fill="#DD3355" height="10" width="10" x="192.75510204081635" y="-313.26879003512977"/>
<rect fill="#DD3355" height="10" width="10" x="203.16326530612244" y="-136.56013497915265"/>
<rect fill="#DD3355" height="10" width="10" x="213.57142857142856" y="-315.3878458120672"/>
<rect fill="#DD3355" height="10" width="10" x="223.9795918367347" y="-138.72262111827817"/>
<rect fill="#DD3355" height="10" width="10" x="234.38775510204084" y="-317.5063807805558"/>
<rect fill="#DD3355" height="10" width="10" x="244.79591836734693" y="-140.88457577491164"/>
<rect fill="#DD3355" height="10" width="10" x="255.20408163265307" y="-319.624395068605"/>
<rect fill="#DD3355" height="10" width="10" x="265.61224489795916" y="-143.0459990796772"/>
<rect fill="#DD3355" height="10" width="10" x="276.02040816326536" y="-321.74188880417597"/>
<rect fill="#DD3355" height="10" width="10" x="286.42857142857144" y="-145.20689116317038"/>
<rect fill="#DD3355" height="10" width="10" x="296.83673469387753" y="-323.858862115211"/>
<rect fill="#DD3355" height="10" width="10" x="307.2448979591837" y="-147.3672521559484"/>
<rect fill="#DD3355" height="10" width="10" x="317.6530612244898" y="-325.97531512961905"/>
<rect fill="#DD3355" height="10" width="10" x="328.06122448979596" y="-149.5270821885418"/>
<rect fill="#DD3355" height="10" width="10" x="338.46938775510205" y="-328.0912479752707"/>
<rect fill="#DD3355" height="10" width="10" x="348.8775510204082" y="-151.6863813914408"/>
<rect fill="#DD3355" height="10" width="10" x="359.2857142857143" y="-330.20666078001165"/>
<rect fill="#DD3355" height="10" width="10" x="369.6938775510204" y="-153.8451498951139"/>
<rect fill="#DD3355" height="10" width="10" x="380.1020408163265" y="-332.3215536716545"/>
<rect fill="#DD3355" height="10" width="10" x="390.5102040816327" y="-156.0033878299991"/>
<rect fill="#DD3355" height="10" width="10" x="400.9183673469388" y="-334.4359267779829"/>
<rect fill="#DD3355" height="10" width="10" x="411.3265306122449" y="-158.16109532648514"/>
<rect fill="#DD3355" height="10" width="10" x="421.734693877551" y="-336.54978022674146"/>
<rect fill="#DD3355" height="10" width="10" x="432.1428571428571" y="-160.31827251494803"/>
<rect fill="#DD3355" height="10" width="10" x="442.55102040816325" y="-338.66311414565183"/>
<rect fill="#DD3355" height="10" width="10" x="452.9591836734694" y="-162.4749195257164"/>
<rect fill="#DD3355" height="10" width="10" x="463.36734693877554" y="-340.7759286623984"/>
<rect fill="#DD3355" height="10" width="10" x="473.7755102040817" y="-164.6310364891002"/>
<rect fill="#DD3355" height="10" width="10" x="484.1836734693877" y="-342.8882239046401"/>
<rect fill="#DD3355" height="10" width="10" x="494.59183673469386" y="-166.78662353537203"/>
<rect fill="#DD3355" height="10" width="10" x="505" y="-345"/>
</g>
<g>
<path d="M0,0 L0,0 L10.408163,-58.54131 L20.816326,-115.08907 L31.22449,-291.21875 L41.632652,-114.24213 L52.040817,-293.42078 L62.44898,-116.40784 L72.85714,-295.54352 L83.265305,-118.57405 L93.67347,-297.66568 L104.081635,-120.73973 L114.4898,-299.78735 L124.89796,-122.90488 L135.30612,-301.9085 L145.71428,-125.06949 L156.12245,-304.0291 L166.53061,-127.23357 L176.93878,-306.1492 L187.34694,-129.39711 L197.7551,-308.2688 L208.16327,-131.56013 L218.57143,-310.38785 L228.9796,-133.72263 L239.38776,-312.50638 L249.79591,-135.88458 L260.20407,-314.6244 L270.61224,-138.046 L281.02042,-316.74188 L291.42856,-140.2069 L301.83673,-318.85886 L312.2449,-142.36725 L322.65308,-320.9753 L333.06122,-144.52708 L343.4694,-323.09125 L353.87756,-146.68639 L364.2857,-325.20667 L374.69388,-148.84515 L385.10205,-327.32156 L395.5102,-151.00339 L405.91837,-329.4359 L416.32654,-153.1611 L426.73468,-331.54977 L437.14285,-155.31827 L447.55103,-333.66312 L457.9592,-157.47491 L468.36734,-335.77594 L478.7755,-159.63104 L489.1837,-337.8882 L499.59183,-161.78662 L510,-340" fill="none" stroke="#DD3355" stroke-linejoin="round" stroke-width="2"/>
</g>
<g>
<g>
<line stroke="black" stroke-width="1" x1="0" x2="0" y1="0" y2="10"/>
<line stroke="black" stroke-width="1" x1="104.08163265306122" x2="104.08163265306122" y1="0" y2="10"/>
<line stroke="black" stroke-width="1" x1="208.16326530612244" x2="208.16326530612244" y1="0" y2="10"/>
<line stroke="black" stroke-width="1" x1="312.24489795918373" x2="312.24489795918373" y1="0" y2="10"/>
<line stroke="black" stroke-width="1" x1="416.3265306122449" x2="416.3265306122449" y1="0" y2="10"/>
</g>
<line stroke="black" stroke-width="1" x1="0" x2="510" y1="0" y2="0"/>
<g>
<text font-size="12" text-anchor="middle" x="0" y="20">
0
</text>
<text font-size="12" text-anchor="middle" x="104.08163265306122" y="20">
0.2
</text>
<text font-size="12" text-anchor="middle" x="208.16326530612244" y="20">
0.4
</text>
<text font-size="12" text-anchor="middle" x="312.24489795918373" y="20">
0.6000000000000001
</text>
<text font-size="12" text-anchor="middle" x="416.3265306122449" y="20">
0.8
</text>
</g>
<text font-size="12" text-anchor="middle" x="255" y="30">
Йекс
</text>
</g>
<g>
<g>
<line stroke="black" stroke-width="1" x1="0" x2="-10" y1="-59.534958492213676" y2="-59.534958492213676"/>
<line stroke="black" stroke-width="1" x1="0" x2="-10" y1="-148.2420466456107" y2="-148.2420466456107"/>
<line stroke="black" stroke-width="1" x1="0" x2="-10" y1="-236.94913479900777" y2="-236.94913479900777"/>
<line stroke="black" stroke-width="1" x1="0" x2="-10" y1="-325.65622295240485" y2="-325.65622295240485"/>
</g>
<line stroke="black" stroke-width="1" x1="0" x2="0" y1="0" y2="-340"/>
<g>
<text dominant-baseline="middle" font-size="12" text-anchor="end" x="-15" y="-59.534958492213676">
0
</text>
<text dominant-baseline="middle" font-size="12" text-anchor="end" x="-15" y="-148.2420466456107">
1
</text>
<text dominant-baseline="middle" font-size="12" text-anchor="end" x="-15" y="-236.94913479900777">
2
</text>
<text dominant-baseline="middle" font-size="12" text-anchor="end" x="-15" y="-325.65622295240485">
3
</text>
</g>
<text font-size="12" text-anchor="middle" transform="rotate(-90 -30 -170)" x="-30" y="-182">
Уигрек
</text>
</g>
</g>
</svg>